<svg width="15.356" height="16.772" viewBox="0 0 15.356 16.772" xmlns="http://www.w3.org/2000/svg"><g id="svgGroup" stroke-linecap="round" fill-rule="evenodd" font-size="9pt" stroke="#000" stroke-width="0.25mm" fill="#000" style="stroke:#000;stroke-width:0.25mm;fill:#000"><path d="M 15.356 15.698 L 15.356 16.772 L 8.936 16.772 L 8.936 15.698 L 10.376 15.552 A 0.627 0.627 0 0 0 10.518 15.516 Q 10.707 15.443 10.728 15.246 A 0.475 0.475 0 0 0 10.73 15.198 A 0.32 0.32 0 0 0 10.706 15.078 A 0.412 0.412 0 0 0 10.681 15.027 L 7.361 9.802 L 3.503 15.1 A 0.429 0.429 0 0 0 3.461 15.189 A 0.328 0.328 0 0 0 3.442 15.295 Q 3.442 15.54 3.809 15.576 L 5.31 15.698 L 5.31 16.772 L 0 16.772 L 0 15.698 L 1.501 15.393 L 6.531 8.496 L 1.978 1.367 L 0.33 1.074 L 0.33 0 L 6.604 0 L 6.604 1.074 L 5.334 1.196 Q 4.988 1.208 4.969 1.46 A 0.399 0.399 0 0 0 4.968 1.489 A 0.385 0.385 0 0 0 5.029 1.697 L 8.081 6.396 L 11.45 1.77 A 0.417 0.417 0 0 0 11.496 1.695 Q 11.521 1.641 11.523 1.586 A 0.261 0.261 0 0 0 11.523 1.575 A 0.394 0.394 0 0 0 11.502 1.44 Q 11.439 1.267 11.192 1.246 A 0.754 0.754 0 0 0 11.182 1.245 L 9.9 1.074 L 9.9 0 L 15.137 0 L 15.137 1.074 L 13.525 1.318 L 8.887 7.703 L 13.806 15.393 L 15.356 15.698 Z" vector-effect="non-scaling-stroke"/></g></svg>