<svg width="31.274" height="16.772" viewBox="0 0 31.274 16.772" xmlns="http://www.w3.org/2000/svg"><g id="svgGroup" stroke-linecap="round" fill-rule="evenodd" font-size="9pt" stroke="#000" stroke-width="0.25mm" fill="#000" style="stroke:#000;stroke-width:0.25mm;fill:#000"><path d="M 15.356 15.698 L 15.356 16.772 L 8.936 16.772 L 8.936 15.698 L 10.376 15.552 A 0.627 0.627 0 0 0 10.518 15.516 Q 10.707 15.443 10.728 15.246 A 0.475 0.475 0 0 0 10.73 15.198 A 0.32 0.32 0 0 0 10.706 15.078 A 0.412 0.412 0 0 0 10.681 15.027 L 7.361 9.802 L 3.503 15.1 A 0.429 0.429 0 0 0 3.461 15.189 A 0.328 0.328 0 0 0 3.442 15.295 Q 3.442 15.54 3.809 15.576 L 5.31 15.698 L 5.31 16.772 L 0 16.772 L 0 15.698 L 1.501 15.393 L 6.531 8.496 L 1.978 1.367 L 0.33 1.074 L 0.33 0 L 6.604 0 L 6.604 1.074 L 5.334 1.196 Q 4.988 1.208 4.969 1.46 A 0.399 0.399 0 0 0 4.968 1.489 A 0.385 0.385 0 0 0 5.029 1.697 L 8.081 6.396 L 11.45 1.77 A 0.417 0.417 0 0 0 11.496 1.695 Q 11.521 1.641 11.523 1.586 A 0.261 0.261 0 0 0 11.523 1.575 A 0.394 0.394 0 0 0 11.502 1.44 Q 11.439 1.267 11.192 1.246 A 0.754 0.754 0 0 0 11.182 1.245 L 9.9 1.074 L 9.9 0 L 15.137 0 L 15.137 1.074 L 13.525 1.318 L 8.887 7.703 L 13.806 15.393 L 15.356 15.698 Z M 23.022 15.698 L 23.022 16.772 L 16.431 16.772 L 16.431 15.698 L 17.92 15.601 A 0.734 0.734 0 0 0 18.081 15.569 Q 18.194 15.532 18.271 15.457 A 0.444 0.444 0 0 0 18.317 15.405 A 0.688 0.688 0 0 0 18.404 15.254 A 0.529 0.529 0 0 0 18.445 15.051 L 18.445 1.721 A 0.53 0.53 0 0 0 18.37 1.452 A 0.7 0.7 0 0 0 18.317 1.373 Q 18.194 1.216 17.945 1.198 A 0.879 0.879 0 0 0 17.92 1.196 L 16.431 1.099 L 16.431 0 L 23.022 0 L 23.022 1.099 L 21.497 1.196 A 0.667 0.667 0 0 0 21.331 1.224 A 0.457 0.457 0 0 0 21.106 1.373 A 0.645 0.645 0 0 0 21.017 1.516 A 0.496 0.496 0 0 0 20.972 1.721 L 20.972 15.051 Q 20.972 15.234 21.106 15.405 A 0.496 0.496 0 0 0 21.369 15.577 A 0.719 0.719 0 0 0 21.497 15.601 L 23.022 15.698 Z M 31.274 15.698 L 31.274 16.772 L 24.683 16.772 L 24.683 15.698 L 26.172 15.601 A 0.734 0.734 0 0 0 26.333 15.569 Q 26.446 15.532 26.523 15.457 A 0.444 0.444 0 0 0 26.569 15.405 A 0.688 0.688 0 0 0 26.656 15.254 A 0.529 0.529 0 0 0 26.697 15.051 L 26.697 1.721 A 0.53 0.53 0 0 0 26.622 1.452 A 0.7 0.7 0 0 0 26.569 1.373 Q 26.446 1.216 26.197 1.198 A 0.879 0.879 0 0 0 26.172 1.196 L 24.683 1.099 L 24.683 0 L 31.274 0 L 31.274 1.099 L 29.749 1.196 A 0.667 0.667 0 0 0 29.583 1.224 A 0.457 0.457 0 0 0 29.358 1.373 A 0.645 0.645 0 0 0 29.269 1.516 A 0.496 0.496 0 0 0 29.224 1.721 L 29.224 15.051 Q 29.224 15.234 29.358 15.405 A 0.496 0.496 0 0 0 29.621 15.577 A 0.719 0.719 0 0 0 29.749 15.601 L 31.274 15.698 Z" vector-effect="non-scaling-stroke"/></g></svg>