<svg width="23.096" height="16.772" viewBox="0 0 23.096 16.772" xmlns="http://www.w3.org/2000/svg"><g id="svgGroup" stroke-linecap="round" fill-rule="evenodd" font-size="9pt" stroke="#000" stroke-width="0.25mm" fill="#000" style="stroke:#000;stroke-width:0.25mm;fill:#000"><path d="M 6.592 15.698 L 6.592 16.772 L 0 16.772 L 0 15.698 L 1.489 15.601 A 0.734 0.734 0 0 0 1.65 15.569 Q 1.764 15.532 1.841 15.457 A 0.444 0.444 0 0 0 1.886 15.405 A 0.688 0.688 0 0 0 1.974 15.254 A 0.529 0.529 0 0 0 2.014 15.051 L 2.014 1.721 A 0.53 0.53 0 0 0 1.939 1.452 A 0.7 0.7 0 0 0 1.886 1.373 Q 1.764 1.216 1.514 1.198 A 0.879 0.879 0 0 0 1.489 1.196 L 0 1.099 L 0 0 L 6.592 0 L 6.592 1.099 L 5.066 1.196 A 0.667 0.667 0 0 0 4.901 1.224 A 0.457 0.457 0 0 0 4.675 1.373 A 0.645 0.645 0 0 0 4.586 1.516 A 0.496 0.496 0 0 0 4.541 1.721 L 4.541 15.051 Q 4.541 15.234 4.675 15.405 A 0.496 0.496 0 0 0 4.938 15.577 A 0.719 0.719 0 0 0 5.066 15.601 L 6.592 15.698 Z M 14.844 15.698 L 14.844 16.772 L 8.252 16.772 L 8.252 15.698 L 9.741 15.601 A 0.734 0.734 0 0 0 9.902 15.569 Q 10.016 15.532 10.093 15.457 A 0.444 0.444 0 0 0 10.138 15.405 A 0.688 0.688 0 0 0 10.225 15.254 A 0.529 0.529 0 0 0 10.266 15.051 L 10.266 1.721 A 0.53 0.53 0 0 0 10.191 1.452 A 0.7 0.7 0 0 0 10.138 1.373 Q 10.016 1.216 9.766 1.198 A 0.879 0.879 0 0 0 9.741 1.196 L 8.252 1.099 L 8.252 0 L 14.844 0 L 14.844 1.099 L 13.318 1.196 A 0.667 0.667 0 0 0 13.153 1.224 A 0.457 0.457 0 0 0 12.927 1.373 A 0.645 0.645 0 0 0 12.838 1.516 A 0.496 0.496 0 0 0 12.793 1.721 L 12.793 15.051 Q 12.793 15.234 12.927 15.405 A 0.496 0.496 0 0 0 13.19 15.577 A 0.719 0.719 0 0 0 13.318 15.601 L 14.844 15.698 Z M 23.096 15.698 L 23.096 16.772 L 16.504 16.772 L 16.504 15.698 L 17.993 15.601 A 0.734 0.734 0 0 0 18.154 15.569 Q 18.268 15.532 18.344 15.457 A 0.444 0.444 0 0 0 18.39 15.405 A 0.688 0.688 0 0 0 18.477 15.254 A 0.529 0.529 0 0 0 18.518 15.051 L 18.518 1.721 A 0.53 0.53 0 0 0 18.443 1.452 A 0.7 0.7 0 0 0 18.39 1.373 Q 18.268 1.216 18.018 1.198 A 0.879 0.879 0 0 0 17.993 1.196 L 16.504 1.099 L 16.504 0 L 23.096 0 L 23.096 1.099 L 21.57 1.196 A 0.667 0.667 0 0 0 21.405 1.224 A 0.457 0.457 0 0 0 21.179 1.373 A 0.645 0.645 0 0 0 21.09 1.516 A 0.496 0.496 0 0 0 21.045 1.721 L 21.045 15.051 Q 21.045 15.234 21.179 15.405 A 0.496 0.496 0 0 0 21.442 15.577 A 0.719 0.719 0 0 0 21.57 15.601 L 23.096 15.698 Z" vector-effect="non-scaling-stroke"/></g></svg>