<svg width="23.816" height="17.175" viewBox="0 0 23.816 17.175" xmlns="http://www.w3.org/2000/svg"><g id="svgGroup" stroke-linecap="round" fill-rule="evenodd" font-size="9pt" stroke="#000" stroke-width="0.25mm" fill="#000" style="stroke:#000;stroke-width:0.25mm;fill:#000"><path d="M 23.816 0 L 23.816 1.074 L 22.375 1.343 L 16.772 17.175 L 14.868 17.175 L 9.143 1.318 L 7.666 1.074 L 7.666 0 L 13.647 0 L 13.647 1.074 L 12.17 1.196 A 0.195 0.195 0 0 0 12.038 1.271 A 0.319 0.319 0 0 0 12 1.331 A 0.635 0.635 0 0 0 11.958 1.435 Q 11.938 1.5 11.938 1.563 A 0.483 0.483 0 0 0 11.939 1.591 Q 11.941 1.618 11.946 1.635 A 0.077 0.077 0 0 0 11.951 1.648 L 16.345 14.001 L 20.569 1.697 Q 20.578 1.678 20.58 1.638 A 0.491 0.491 0 0 0 20.581 1.611 Q 20.581 1.486 20.486 1.361 A 0.68 0.68 0 0 0 20.471 1.343 A 0.501 0.501 0 0 0 20.395 1.266 Q 20.339 1.222 20.277 1.205 A 0.289 0.289 0 0 0 20.227 1.196 L 18.848 1.074 L 18.848 0 L 23.816 0 Z M 6.592 15.698 L 6.592 16.772 L 0 16.772 L 0 15.698 L 1.489 15.601 A 0.734 0.734 0 0 0 1.65 15.569 Q 1.764 15.532 1.841 15.457 A 0.444 0.444 0 0 0 1.886 15.405 A 0.688 0.688 0 0 0 1.974 15.254 A 0.529 0.529 0 0 0 2.014 15.051 L 2.014 1.721 A 0.53 0.53 0 0 0 1.939 1.452 A 0.7 0.7 0 0 0 1.886 1.373 Q 1.764 1.216 1.514 1.198 A 0.879 0.879 0 0 0 1.489 1.196 L 0 1.099 L 0 0 L 6.592 0 L 6.592 1.099 L 5.066 1.196 A 0.667 0.667 0 0 0 4.901 1.224 A 0.457 0.457 0 0 0 4.675 1.373 A 0.645 0.645 0 0 0 4.586 1.516 A 0.496 0.496 0 0 0 4.541 1.721 L 4.541 15.051 Q 4.541 15.234 4.675 15.405 A 0.496 0.496 0 0 0 4.938 15.577 A 0.719 0.719 0 0 0 5.066 15.601 L 6.592 15.698 Z" vector-effect="non-scaling-stroke"/></g></svg>