<svg width="23.022" height="16.772" viewBox="0 0 23.022 16.772" xmlns="http://www.w3.org/2000/svg"><g id="svgGroup" stroke-linecap="round" fill-rule="evenodd" font-size="9pt" stroke="#000" stroke-width="0.25mm" fill="#000" style="stroke:#000;stroke-width:0.25mm;fill:#000"><path d="M 23.022 15.698 L 23.022 16.772 L 16.602 16.772 L 16.602 15.698 L 18.042 15.552 A 0.627 0.627 0 0 0 18.184 15.516 Q 18.373 15.443 18.394 15.246 A 0.475 0.475 0 0 0 18.396 15.198 A 0.32 0.32 0 0 0 18.372 15.078 A 0.412 0.412 0 0 0 18.347 15.027 L 15.027 9.802 L 11.169 15.1 A 0.429 0.429 0 0 0 11.127 15.189 A 0.328 0.328 0 0 0 11.108 15.295 Q 11.108 15.54 11.475 15.576 L 12.976 15.698 L 12.976 16.772 L 7.666 16.772 L 7.666 15.698 L 9.167 15.393 L 14.197 8.496 L 9.644 1.367 L 7.996 1.074 L 7.996 0 L 14.27 0 L 14.27 1.074 L 13 1.196 Q 12.654 1.208 12.635 1.46 A 0.399 0.399 0 0 0 12.634 1.489 A 0.385 0.385 0 0 0 12.695 1.697 L 15.747 6.396 L 19.116 1.77 A 0.417 0.417 0 0 0 19.162 1.695 Q 19.187 1.641 19.189 1.586 A 0.261 0.261 0 0 0 19.189 1.575 A 0.394 0.394 0 0 0 19.168 1.44 Q 19.105 1.267 18.858 1.246 A 0.754 0.754 0 0 0 18.848 1.245 L 17.566 1.074 L 17.566 0 L 22.803 0 L 22.803 1.074 L 21.191 1.318 L 16.553 7.703 L 21.472 15.393 L 23.022 15.698 Z M 6.592 15.698 L 6.592 16.772 L 0 16.772 L 0 15.698 L 1.489 15.601 A 0.734 0.734 0 0 0 1.65 15.569 Q 1.764 15.532 1.841 15.457 A 0.444 0.444 0 0 0 1.886 15.405 A 0.688 0.688 0 0 0 1.974 15.254 A 0.529 0.529 0 0 0 2.014 15.051 L 2.014 1.721 A 0.53 0.53 0 0 0 1.939 1.452 A 0.7 0.7 0 0 0 1.886 1.373 Q 1.764 1.216 1.514 1.198 A 0.879 0.879 0 0 0 1.489 1.196 L 0 1.099 L 0 0 L 6.592 0 L 6.592 1.099 L 5.066 1.196 A 0.667 0.667 0 0 0 4.901 1.224 A 0.457 0.457 0 0 0 4.675 1.373 A 0.645 0.645 0 0 0 4.586 1.516 A 0.496 0.496 0 0 0 4.541 1.721 L 4.541 15.051 Q 4.541 15.234 4.675 15.405 A 0.496 0.496 0 0 0 4.938 15.577 A 0.719 0.719 0 0 0 5.066 15.601 L 6.592 15.698 Z" vector-effect="non-scaling-stroke"/></g></svg>